{
	"patcher" : 	{
		"fileversion" : 1,
		"appversion" : 		{
			"major" : 8,
			"minor" : 1,
			"revision" : 1,
			"architecture" : "x64",
			"modernui" : 1
		}
,
		"classnamespace" : "box",
		"rect" : [ 144.0, -971.0, 577.0, 937.0 ],
		"bglocked" : 0,
		"openinpresentation" : 0,
		"default_fontsize" : 12.0,
		"default_fontface" : 0,
		"default_fontname" : "Arial",
		"gridonopen" : 1,
		"gridsize" : [ 15.0, 15.0 ],
		"gridsnaponopen" : 1,
		"objectsnaponopen" : 1,
		"statusbarvisible" : 2,
		"toolbarvisible" : 1,
		"lefttoolbarpinned" : 0,
		"toptoolbarpinned" : 0,
		"righttoolbarpinned" : 0,
		"bottomtoolbarpinned" : 0,
		"toolbars_unpinned_last_save" : 0,
		"tallnewobj" : 0,
		"boxanimatetime" : 200,
		"enablehscroll" : 1,
		"enablevscroll" : 1,
		"devicewidth" : 0.0,
		"description" : "",
		"digest" : "",
		"tags" : "",
		"style" : "",
		"subpatcher_template" : "",
		"boxes" : [ 			{
				"box" : 				{
					"data" : 					{
						"clips" : [ 							{
								"absolutepath" : "epno.aiff",
								"filename" : "epno.aiff",
								"filekind" : "audiofile",
								"loop" : 1,
								"content_state" : 								{
									"formantcorrection" : [ 0 ],
									"mode" : [ "basic" ],
									"formant" : [ 1.0 ],
									"play" : [ 0 ],
									"originallength" : [ 0.0, "ticks" ],
									"quality" : [ "basic" ],
									"originaltempo" : [ 120.0 ],
									"slurtime" : [ 0.0 ],
									"basictuning" : [ 440 ],
									"speed" : [ 1.0 ],
									"pitchshift" : [ 1.0 ],
									"pitchcorrection" : [ 0 ],
									"originallengthms" : [ 0.0 ],
									"followglobaltempo" : [ 0 ],
									"timestretch" : [ 0 ]
								}

							}
 ]
					}
,
					"id" : "obj-9",
					"maxclass" : "playlist~",
					"numinlets" : 1,
					"numoutlets" : 5,
					"outlettype" : [ "signal", "signal", "signal", "", "dictionary" ],
					"patching_rect" : [ 141.5, 93.930064678192139, 150.0, 30.0 ]
				}

			}
, 			{
				"box" : 				{
					"appearance" : 3,
					"fontname" : "Arial Bold",
					"id" : "obj-4",
					"maxclass" : "live.dial",
					"numinlets" : 1,
					"numoutlets" : 2,
					"outlettype" : [ "", "float" ],
					"parameter_enable" : 1,
					"patching_rect" : [ 348.295271754264832, 196.126368666472672, 50.0, 62.0 ],
					"saved_attribute_attributes" : 					{
						"valueof" : 						{
							"parameter_shortname" : "Glide",
							"parameter_type" : 0,
							"parameter_unitstyle" : 2,
							"parameter_linknames" : 1,
							"parameter_exponent" : 3.0,
							"parameter_longname" : "Glide[2]",
							"parameter_initial_enable" : 1,
							"parameter_mmax" : 10000.0,
							"parameter_initial" : [ 0 ]
						}

					}
,
					"varname" : "Glide[2]"
				}

			}
, 			{
				"box" : 				{
					"id" : "obj-3",
					"maxclass" : "newobj",
					"numinlets" : 2,
					"numoutlets" : 2,
					"outlettype" : [ "signal", "list" ],
					"patching_rect" : [ 141.5, 243.126368666472672, 63.0, 22.0 ],
					"saved_object_attributes" : 					{
						"enabled" : [ 1 ],
						"quality" : "good",
						"reportlatency" : 0,
						"usecents" : 0
					}
,
					"text" : "pitchshift~"
				}

			}
, 			{
				"box" : 				{
					"appearance" : 3,
					"id" : "obj-89",
					"maxclass" : "live.dial",
					"numinlets" : 1,
					"numoutlets" : 2,
					"outlettype" : [ "", "float" ],
					"parameter_enable" : 1,
					"patching_rect" : [ 425.497399508953094, 364.722113514724015, 67.595744490623474, 63.0 ],
					"saved_attribute_attributes" : 					{
						"valueof" : 						{
							"parameter_shortname" : "live.dial",
							"parameter_type" : 0,
							"parameter_unitstyle" : 0,
							"parameter_mmin" : -2400.0,
							"parameter_longname" : "live.dial[1]",
							"parameter_mmax" : 2400.0
						}

					}
,
					"varname" : "live.dial[1]"
				}

			}
, 			{
				"box" : 				{
					"fontname" : "Arial",
					"fontsize" : 13.0,
					"id" : "obj-50",
					"maxclass" : "newobj",
					"numinlets" : 3,
					"numoutlets" : 2,
					"outlettype" : [ "", "bang" ],
					"patching_rect" : [ 352.295271754264832, 314.126368666472672, 63.0, 23.0 ],
					"text" : "line 0. 0."
				}

			}
, 			{
				"box" : 				{
					"fontname" : "Arial",
					"fontsize" : 13.0,
					"id" : "obj-51",
					"maxclass" : "newobj",
					"numinlets" : 2,
					"numoutlets" : 1,
					"outlettype" : [ "" ],
					"patching_rect" : [ 352.295271754264832, 280.126368666472672, 101.0, 23.0 ],
					"text" : "pack 0. 0."
				}

			}
, 			{
				"box" : 				{
					"appearance" : 3,
					"fontname" : "Arial Bold",
					"id" : "obj-52",
					"maxclass" : "live.dial",
					"numinlets" : 1,
					"numoutlets" : 2,
					"outlettype" : [ "", "float" ],
					"parameter_enable" : 1,
					"patching_rect" : [ 434.295271754264832, 196.126368666472672, 50.0, 62.0 ],
					"saved_attribute_attributes" : 					{
						"valueof" : 						{
							"parameter_shortname" : "Glide",
							"parameter_type" : 0,
							"parameter_unitstyle" : 2,
							"parameter_linknames" : 1,
							"parameter_exponent" : 3.0,
							"parameter_longname" : "Glide[1]",
							"parameter_initial_enable" : 1,
							"parameter_mmax" : 10000.0,
							"parameter_initial" : [ 0 ]
						}

					}
,
					"varname" : "Glide[1]"
				}

			}
, 			{
				"box" : 				{
					"fontname" : "Arial",
					"fontsize" : 13.0,
					"id" : "obj-54",
					"maxclass" : "newobj",
					"numinlets" : 1,
					"numoutlets" : 1,
					"outlettype" : [ "" ],
					"patching_rect" : [ 279.795271754264832, 404.722113514724015, 23.0, 23.0 ],
					"text" : "t l"
				}

			}
, 			{
				"box" : 				{
					"fontname" : "Arial",
					"fontsize" : 13.0,
					"id" : "obj-55",
					"maxclass" : "comment",
					"numinlets" : 1,
					"numoutlets" : 0,
					"patching_rect" : [ 240.795271754264832, 229.126368666472672, 88.0, 21.0 ],
					"text" : "Quality"
				}

			}
, 			{
				"box" : 				{
					"fontname" : "Arial",
					"fontsize" : 13.0,
					"id" : "obj-2",
					"maxclass" : "message",
					"numinlets" : 2,
					"numoutlets" : 1,
					"outlettype" : [ "" ],
					"patching_rect" : [ 279.795271754264832, 280.126368666472672, 68.0, 23.0 ],
					"text" : "quality $1"
				}

			}
, 			{
				"box" : 				{
					"id" : "obj-57",
					"maxclass" : "live.menu",
					"numinlets" : 1,
					"numoutlets" : 3,
					"outlettype" : [ "", "", "float" ],
					"parameter_enable" : 1,
					"patching_rect" : [ 240.795271754264832, 250.126368666472672, 88.0, 15.0 ],
					"saved_attribute_attributes" : 					{
						"valueof" : 						{
							"parameter_shortname" : "Quality",
							"parameter_enum" : [ "basic", "good", "better", "best" ],
							"parameter_type" : 2,
							"parameter_linknames" : 1,
							"parameter_longname" : "Quality[1]",
							"parameter_initial_enable" : 1,
							"parameter_mmax" : 3,
							"parameter_initial" : [ 0 ]
						}

					}
,
					"varname" : "Quality[1]"
				}

			}
, 			{
				"box" : 				{
					"fontname" : "Arial",
					"fontsize" : 13.0,
					"id" : "obj-58",
					"maxclass" : "message",
					"numinlets" : 2,
					"numoutlets" : 1,
					"outlettype" : [ "" ],
					"patching_rect" : [ 308.752718448638916, 364.722113514724015, 102.0, 23.0 ],
					"text" : "pitchshiftcent $1"
				}

			}
, 			{
				"box" : 				{
					"fontface" : 3,
					"fontname" : "Arial Bold",
					"fontsize" : 24.0,
					"id" : "obj-56",
					"maxclass" : "comment",
					"numinlets" : 1,
					"numoutlets" : 0,
					"patching_rect" : [ 20.394736647605896, 21.381578743457794, 292.0, 33.0 ],
					"text" : "Pitch Shifter"
				}

			}
, 			{
				"box" : 				{
					"id" : "obj-22",
					"maxclass" : "message",
					"numinlets" : 2,
					"numoutlets" : 1,
					"outlettype" : [ "" ],
					"patching_rect" : [ 74.232445068359368, 116.930064678192139, 37.0, 22.0 ],
					"text" : "clear"
				}

			}
, 			{
				"box" : 				{
					"fontface" : 1,
					"fontname" : "Monaco",
					"id" : "obj-24",
					"lastchannelcount" : 0,
					"maxclass" : "live.gain~",
					"numinlets" : 2,
					"numoutlets" : 5,
					"outlettype" : [ "signal", "signal", "", "float", "list" ],
					"parameter_enable" : 1,
					"patching_rect" : [ 20.525128669738763, 282.763059914112091, 45.0, 156.0 ],
					"presentation" : 1,
					"presentation_rect" : [ 11.314602441787713, 3.920957267284393, 45.0, 156.0 ],
					"saved_attribute_attributes" : 					{
						"valueof" : 						{
							"parameter_shortname" : "Gain",
							"parameter_type" : 0,
							"parameter_unitstyle" : 4,
							"parameter_mmin" : -70.0,
							"parameter_longname" : "Gain[1]",
							"parameter_mmax" : 6.0,
							"parameter_initial" : [ 0.0 ]
						}

					}
,
					"varname" : "live.gain~[1]"
				}

			}
, 			{
				"box" : 				{
					"id" : "obj-11",
					"maxclass" : "ezdac~",
					"numinlets" : 2,
					"numoutlets" : 0,
					"patching_rect" : [ 20.525128669738763, 507.06072057485585, 45.0, 45.0 ]
				}

			}
, 			{
				"box" : 				{
					"id" : "obj-7",
					"maxclass" : "newobj",
					"numinlets" : 1,
					"numoutlets" : 2,
					"outlettype" : [ "signal", "signal" ],
					"patching_rect" : [ 74.232445068359368, 93.930064678192139, 35.0, 22.0 ],
					"text" : "adc~"
				}

			}
, 			{
				"box" : 				{
					"id" : "obj-1",
					"maxclass" : "ezadc~",
					"numinlets" : 1,
					"numoutlets" : 2,
					"outlettype" : [ "signal", "signal" ],
					"patching_rect" : [ 20.525128669738763, 93.930064678192139, 45.0, 45.0 ]
				}

			}
 ],
		"lines" : [ 			{
				"patchline" : 				{
					"destination" : [ "obj-3", 0 ],
					"source" : [ "obj-1", 0 ]
				}

			}
, 			{
				"patchline" : 				{
					"destination" : [ "obj-54", 0 ],
					"source" : [ "obj-2", 0 ]
				}

			}
, 			{
				"patchline" : 				{
					"destination" : [ "obj-11", 1 ],
					"midpoints" : [ 36.525128669738763, 500.701363658905052, 56.025128669738763, 500.701363658905052 ],
					"source" : [ "obj-24", 1 ]
				}

			}
, 			{
				"patchline" : 				{
					"destination" : [ "obj-11", 0 ],
					"midpoints" : [ 30.025128669738763, 472.41189024448397, 30.025128669738763, 472.41189024448397 ],
					"source" : [ "obj-24", 0 ]
				}

			}
, 			{
				"patchline" : 				{
					"destination" : [ "obj-24", 0 ],
					"source" : [ "obj-3", 0 ]
				}

			}
, 			{
				"patchline" : 				{
					"destination" : [ "obj-51", 0 ],
					"source" : [ "obj-4", 0 ]
				}

			}
, 			{
				"patchline" : 				{
					"destination" : [ "obj-58", 0 ],
					"order" : 1,
					"source" : [ "obj-50", 0 ]
				}

			}
, 			{
				"patchline" : 				{
					"destination" : [ "obj-89", 0 ],
					"order" : 0,
					"source" : [ "obj-50", 0 ]
				}

			}
, 			{
				"patchline" : 				{
					"destination" : [ "obj-50", 0 ],
					"source" : [ "obj-51", 0 ]
				}

			}
, 			{
				"patchline" : 				{
					"destination" : [ "obj-51", 1 ],
					"source" : [ "obj-52", 0 ]
				}

			}
, 			{
				"patchline" : 				{
					"destination" : [ "obj-3", 0 ],
					"source" : [ "obj-54", 0 ]
				}

			}
, 			{
				"patchline" : 				{
					"destination" : [ "obj-2", 0 ],
					"source" : [ "obj-57", 1 ]
				}

			}
, 			{
				"patchline" : 				{
					"destination" : [ "obj-54", 0 ],
					"source" : [ "obj-58", 0 ]
				}

			}
, 			{
				"patchline" : 				{
					"destination" : [ "obj-3", 0 ],
					"source" : [ "obj-9", 0 ]
				}

			}
 ],
		"parameters" : 		{
			"obj-52" : [ "Glide[1]", "Glide", 0 ],
			"obj-89" : [ "live.dial[1]", "live.dial", 0 ],
			"obj-24" : [ "Gain[1]", "Gain", 0 ],
			"obj-57" : [ "Quality[1]", "Quality", 0 ],
			"obj-4" : [ "Glide[2]", "Glide", 0 ],
			"parameterbanks" : 			{

			}

		}
,
		"dependency_cache" : [ 			{
				"name" : "epno.aiff",
				"bootpath" : "C74:/docs/tutorial-patchers/msp-tut",
				"type" : "AIFF",
				"implicit" : 1
			}
 ],
		"autosave" : 0
	}

}
